# xmcd
#
# Track frame offsets: 
#        150
#        7515
#        21567
#        35355
#        46805
#        64890
#        77430
#        91535
#        113977
#        123005
#        136250
#        148460
#        162425
#        166702
#        178357
#        189865
#        199607
#        210290
#        222897
#        233955
#        246582
#        255747
#        268197
#        276567
#        286527
#        290655
#        301880
#        314512
#        329517
#        335830
#
# Disc length: 4625 seconds
#
# Revision: 2
# Processed by: cddbd v1.4PL0 Copyright (c) Steve Scherf et al.
# Submitted via: ExactAudioCopy v0.90b3
#
DISCID=bb120f1e
DTITLE=Johnny Cash - Come Along And Ride This Train - Disc 4
DYEAR=1900
DGENRE=Country
TTITLE0=From Sea To Shining Sea
TTITLE1=The Whirl And The Suck
TTITLE2=Call Daddy From The Mines
TTITLE3=THe Frozen Four Hundred Pound Fair To Middlin' Cotton Picker
TTITLE4=The Walls Of A Prison
TTITLE5=The Masterpiece
TTITLE6=You And Tennessee
TTITLE7=She Came From The Mountains
TTITLE8=Another Song To Sing
TTITLE9=The Flint Arrowhead
TTITLE10=Cisco Clifton's Fillin' Station
TTITLE11=Shrimpin' Sailin'
TTITLE12=From Sea To Shining Sea
TTITLE13=Hit The Road And Go
TTITLE14=Dialogue #1
TTITLE15=If It Wasn't For The Wabash River
TTITLE16=Dialogue #2
TTITLE17=Lady
TTITLE18=Dialogue #3
TTITLE19=After The Ball
TTITLE20=Dialogue #4
TTITLE21=No Earthly Good
TTITLE22=Dialogue #5
TTITLE23=A Wednesday Car
TTITLE24=Dialogue #6
TTITLE25=My Cowboys Last Ride
TTITLE26=Dialogue #7
TTITLE27=Calilou
TTITLE28=Dialogue #8
TTITLE29=Come Along And Ride This Train
EXTD=
EXTT0=
EXTT1=
EXTT2=
EXTT3=
EXTT4=
EXTT5=
EXTT6=
EXTT7=
EXTT8=
EXTT9=
EXTT10=
EXTT11=
EXTT12=
EXTT13=
EXTT14=
EXTT15=
EXTT16=
EXTT17=
EXTT18=
EXTT19=
EXTT20=
EXTT21=
EXTT22=
EXTT23=
EXTT24=
EXTT25=
EXTT26=
EXTT27=
EXTT28=
EXTT29=
PLAYORDER=
